<svg width="147" height="64" viewBox="0 0 147 64" fill="none" xmlns="http://www.w3.org/2000/svg">
<path d="M29.7428 26.6597C29.7248 26.6597 29.7115 26.6584 29.7024 26.6572C29.6885 26.626 29.6594 26.5387 29.6594 26.3521C29.6594 26.126 29.6947 25.916 29.7669 25.7113C30.099 24.956 30.5505 24.1517 31.1088 23.3202C31.5154 22.7141 32.0032 22.0707 32.5584 21.4077L32.5553 21.4048L32.6771 21.2649C32.8664 21.0906 33.0526 20.9152 33.2322 20.7371L33.2326 20.7367C33.2596 20.7099 33.2878 20.6835 33.3156 20.6574C33.3615 20.6144 33.4069 20.5715 33.4445 20.5331C33.5908 20.3871 33.6944 20.2543 33.7646 20.1235L33.7814 20.1044L33.8189 20.0079L33.8196 20.0063C35.247 18.5373 36.4336 17.6751 37.3517 17.4406C37.6024 17.3781 37.8432 17.3464 38.0675 17.3464C38.4405 17.3464 38.7301 17.4252 38.9518 17.5871C39.0624 17.6683 39.1425 17.7499 39.1772 17.8146C37.4478 19.8819 35.8072 21.663 34.3005 23.1093C32.7926 24.556 31.3427 25.718 29.9903 26.5629C29.8923 26.6244 29.802 26.6597 29.7428 26.6597ZM41.6023 19.6003C42.2892 18.5519 42.9922 17.4701 43.7512 16.2928L43.7842 16.2344C43.9631 15.8722 43.7554 15.5248 43.6865 15.4096C43.4395 14.999 43.1007 14.9376 42.9208 14.9376C42.5968 14.9376 42.3944 15.0715 42.2817 15.1836L42.2375 15.233C42.1065 15.3963 41.8346 15.4714 41.6295 15.5055L41.6017 15.51C41.5459 15.5094 41.4184 15.5026 41.144 15.471C40.8435 15.3735 40.5402 15.2925 40.2403 15.2298C39.583 15.0939 38.9181 15.0841 38.2855 15.2338C38.0103 15.2996 37.7489 15.3733 37.509 15.4528L37.4708 15.4671C36.4633 15.8808 35.3701 16.4983 34.2214 17.3026C33.0782 18.1025 31.8459 19.1611 30.5588 20.4484C30.0137 20.9934 29.5097 21.5347 29.0566 22.0599C28.8433 22.196 28.6384 22.3224 28.4367 22.4418C26.9735 23.3073 25.3031 24.1299 23.4799 24.8831C21.5024 25.665 19.5289 26.2778 17.6139 26.7039C15.7064 27.1294 13.8037 27.3697 11.961 27.4183C8.82534 27.491 6.35327 26.8986 4.63113 25.6646C3.21078 24.628 2.52043 23.3181 2.52043 21.6601C2.52043 21.0964 2.60055 20.5364 2.75622 20.0023C3.85838 16.3835 6.99132 12.6025 12.0639 8.7678C16.8906 5.18424 21.4142 2.97246 25.5094 2.19368C25.8511 2.14574 26.1587 2.11107 26.449 2.08762C26.7475 2.06416 27.0273 2.05213 27.2801 2.05213C29.2096 2.05213 29.8832 2.45729 30.4517 3.20472L30.4662 3.22319C30.5837 3.36537 30.7885 3.95962 30.9035 4.41668C30.9295 4.58771 30.9849 5.00221 30.9849 5.23426C30.9849 5.58505 30.9461 5.9296 30.8695 6.25775C30.789 6.60293 30.6785 6.96326 30.542 7.32898C29.747 9.16902 28.4572 10.6824 26.7083 11.8273L26.6763 11.846C25.948 12.2723 25.5119 12.5668 25.598 13.0604C25.6437 13.3232 25.8515 13.526 26.1271 13.5774L26.2421 13.5876C26.9696 13.5874 30.0098 11.4881 30.9739 10.322C31.9096 9.28111 32.5601 8.28605 32.908 7.36406C33.255 6.44145 33.431 5.44867 33.4308 4.40256C33.3955 2.44463 32.4766 1.62995 32.2427 1.45414C31.2996 0.612477 29.8466 0.203372 27.8028 0.203372C27.1134 0.203372 26.4133 0.242391 25.7161 0.319812C22.9927 0.650666 19.5812 1.91659 15.5765 4.0825C11.3626 6.36506 7.79895 8.97495 4.98482 11.8397C1.6771 15.1989 0 18.3524 0 21.212C0 23.7131 1.30266 25.7549 3.86357 27.2753C6.08407 28.6442 8.7969 29.3642 11.9211 29.4157C12.1173 29.4211 12.314 29.4236 12.511 29.4236C14.2298 29.4236 16.0136 29.2216 17.8132 28.8233C19.8048 28.3824 21.8854 27.7124 23.999 26.8315C24.9486 26.4322 25.8573 26.0088 26.7205 25.5644C26.4009 26.3114 26.2427 27.0051 26.2427 27.6587C26.2427 29.369 27.3069 29.5535 27.7644 29.5535C28.128 29.5535 28.5099 29.4273 28.9209 29.1741C30.5096 28.2411 32.4333 26.8276 34.6444 24.968C35.6148 24.1303 36.4946 23.3401 37.2651 22.6145C36.982 23.1689 36.6976 23.749 36.4149 24.3483C36.0612 25.1044 35.7026 25.988 35.3487 26.9745C35.0137 27.9071 34.4057 29.7926 34.3655 29.9454C34.3578 29.969 34.3449 30.0004 34.3308 30.0371C34.264 30.209 34.1641 30.4653 34.1457 30.7271C34.117 30.9633 34.183 31.1949 34.3296 31.3676C34.4759 31.5397 34.6915 31.6385 34.9215 31.6387H34.9217C35.6216 31.6387 36.2215 30.8194 36.7047 29.2038C37.1078 28.0684 37.5592 26.9314 38.0464 25.8236C38.5306 24.7217 39.0342 23.7326 39.5427 22.8845C40.2096 21.7732 40.9026 20.6682 41.6023 19.6003Z" fill="white"/>
<path d="M58.3454 14.6186L58.2493 14.5737C57.6872 14.3116 56.8962 14.2009 55.8139 14.2358L55.706 14.2393L55.6062 14.2809C54.4114 14.779 52.8228 15.8403 50.7507 17.5238C49.2568 18.7281 47.9583 19.9203 46.8744 21.081C47.0586 20.7964 47.2603 20.4953 47.4795 20.1781C48.179 19.1687 49.0329 17.9699 50.018 16.6149C50.3262 16.2774 50.369 15.8365 50.1321 15.442C49.969 15.0982 49.6379 14.8952 49.2348 14.8952C49.0024 14.8952 48.7965 14.9797 48.6516 15.1287C46.1918 16.6114 45.5124 16.937 45.3267 16.9985L45.0477 17.091L44.9541 17.3698C44.8858 17.5728 44.8816 17.7957 44.9414 18.0319L44.9537 18.0736C45.0292 18.3003 45.0554 18.4008 45.0639 18.4385C45.0585 18.6079 45.0105 18.8989 44.83 19.3506C43.7477 21.8542 41.6702 25.4882 38.6448 30.1675C38.468 30.4616 38.4296 30.7912 38.5342 31.1019C38.6307 31.5212 38.9462 31.6719 39.1965 31.6719C39.4663 31.6719 39.6604 31.5106 39.7673 31.3979C40.1197 31.1837 40.4369 31.0127 40.7113 30.8894C41.0092 30.7547 41.2821 30.6407 41.5229 30.5508L41.5797 30.5261C41.741 30.4456 42.1265 30.2532 42.2462 29.8943C45.8084 24.0826 49.9042 19.8678 54.4117 17.3706C55.2788 16.9111 55.9617 16.7654 56.4128 16.9509C56.6726 17.0958 56.995 17.0915 57.32 16.9298C57.5328 16.8239 57.7353 16.6757 57.9219 16.4889C58.0911 16.3195 58.2447 16.1277 58.3792 15.9177C58.5546 15.6425 58.6362 15.4148 58.6362 15.2012C58.6362 15.016 58.5594 14.8359 58.4199 14.6941L58.3454 14.6186Z" fill="white"/>
<path d="M107.81 14.704C107.891 14.7202 107.975 14.7285 108.059 14.7285H108.06C108.55 14.7285 109.073 14.4581 109.658 13.9022C110.36 13.2824 110.754 12.7191 110.861 12.1815C110.937 11.9217 110.964 11.4571 110.455 11.0005C110.163 10.7404 109.838 10.6088 109.488 10.6088C109.406 10.6088 109.322 10.6163 109.223 10.6348C108.757 10.7342 108.23 11.1028 107.575 11.7869C106.883 12.4796 106.561 13.0385 106.561 13.5458C106.561 13.8939 106.724 14.5073 107.81 14.704Z" fill="#E2001A"/>
<path d="M91.1722 27.4662C90.6369 27.6523 90.2388 27.7565 89.9451 27.8126C89.9509 27.8078 89.9569 27.8028 89.9627 27.7979C90.2515 27.5577 90.6404 27.2663 91.1274 26.9255C91.6984 26.5103 92.1683 26.1784 92.5313 25.9344C92.8508 26.2961 92.8807 26.4987 92.8807 26.5616C92.8807 26.5691 92.8807 26.5793 92.8597 26.6056L92.8213 26.66C92.7939 26.704 92.6968 26.8209 92.3906 26.957C92.0734 27.0982 91.6747 27.2646 91.1722 27.4662ZM133.683 29.9866C134.971 30.091 134.971 30.6327 134.971 30.8932C134.971 31.706 134.439 32.6596 133.392 33.7318C133.189 33.2868 133.116 32.7291 133.176 32.0336C133.21 31.4387 133.33 30.7486 133.531 29.9768C133.582 29.98 133.634 29.9831 133.683 29.9866ZM112.505 26.4435C112.505 26.3165 112.512 26.2627 112.516 26.2393C112.526 26.1776 112.541 26.0979 112.56 25.9997C113.051 24.5848 114.2 23.1563 115.969 21.7594C117.686 20.4481 119.432 19.5792 121.172 19.1736C121.859 18.9968 122.222 18.9599 122.405 18.9599H122.41C122.411 18.9752 122.412 18.992 122.413 19.0105C122.39 19.091 122.378 19.1797 122.378 19.2758V19.6072C122.275 20.1824 122.019 20.6187 121.603 20.9352L121.566 20.9661C121.072 21.4091 120.45 21.9207 119.715 22.4865C118.964 23.0644 118.073 23.719 117.062 24.4343C113.735 26.8153 112.964 27.038 112.813 27.0496C112.676 27.0496 112.505 27.0496 112.505 26.4435ZM82.1127 49.8445C83.6902 45.9006 88.526 42.025 96.4808 38.3275C102.905 35.4121 110.46 33 118.948 31.1535C117.943 34.1264 116.813 36.9752 115.583 39.6353C114.218 42.5848 112.691 45.4406 111.043 48.1223C105.752 56.6891 100.136 61.1419 94.3458 61.3573C91.0468 61.4985 88.0345 60.5487 85.3976 58.5301C82.9141 56.6145 81.7067 54.4833 81.7067 52.015C81.7067 51.2939 81.8448 50.5595 82.1127 49.8445ZM145.095 25.1029C144.835 25.1029 144.556 25.172 144.266 25.3081C143.696 25.5761 143.61 25.9908 143.61 26.2142C143.61 26.5622 143.864 26.9143 144.348 26.9143C144.424 26.9143 144.514 26.9273 144.615 26.9527C144.654 26.9622 144.685 26.9786 144.716 27.0052C144.722 27.0247 144.73 27.0687 144.73 27.1474C144.73 27.858 144.151 29.1991 141.392 31.5514C139.325 33.3051 137.603 34.3834 136.261 34.7601C135.994 34.8421 135.688 34.8836 135.351 34.8836C135.073 34.8836 134.822 34.8475 134.592 34.778C135.609 33.922 136.259 33.2113 136.571 32.6116C136.736 32.2808 136.82 31.9161 136.82 31.528C136.82 31.1132 136.723 30.7106 136.533 30.3322C136.363 29.9893 136.138 29.6624 135.864 29.3589C135.59 29.0567 135.283 28.801 134.95 28.5986C134.685 28.4367 134.417 28.3184 134.151 28.2435C134.473 27.3669 134.863 26.4292 135.322 25.4439C136.717 22.5326 138.302 19.9312 140.022 17.7265C140.155 17.5665 140.56 17.0795 140.417 16.5546C140.373 16.3929 140.238 16.1021 139.83 15.9465C139.354 15.737 138.774 15.7833 138.077 16.0961C137.76 16.215 137.426 16.4226 137.058 16.7286C136.33 17.0418 135.075 17.9148 133.226 19.3945C132.422 20.0475 131.633 20.7113 130.878 21.367C130.343 21.8313 129.82 22.3022 129.316 22.7734C129.736 21.8983 130.218 21.0301 130.753 20.1841C131.416 19.1354 132.217 18.0646 133.135 17.0011C133.309 16.8182 133.401 16.5907 133.401 16.3419V16.0926L133.222 15.9191C133.096 15.7972 132.93 15.7354 132.729 15.7354C132.652 15.7354 132.566 15.7435 132.445 15.7632C132.105 15.8257 131.845 15.9072 131.654 16.0121C131.441 16.1281 131.269 16.2854 131.141 16.4803C130.643 17.0797 130.104 17.7767 129.538 18.552C128.968 19.3318 128.347 20.2386 127.692 21.2459C126.315 23.3469 125.322 25.0418 124.745 26.2706C124.509 26.7428 124.485 27.1262 124.672 27.4137C124.802 27.7107 125.137 27.9705 125.751 27.8589L125.772 27.8547C126.946 27.5965 127.657 27.2711 128.005 26.8312C129.449 25.1423 130.883 23.6153 132.267 22.2925C133.64 20.9805 135.037 19.8223 136.421 18.8494C136.521 18.789 136.611 18.7596 136.695 18.7596C136.731 18.7596 136.758 18.7616 136.779 18.7643V18.7687C136.779 18.7853 136.778 18.7955 136.778 18.7984C136.052 19.799 135.358 20.8489 134.716 21.9191C134.075 22.9876 133.459 24.1126 132.889 25.2527C132.392 26.2027 131.968 27.1179 131.615 27.9844L131.04 27.9971C128.264 28.0573 125.321 28.3385 122.277 28.8336C122.926 26.9402 123.478 25.3077 123.954 23.8658C124.501 22.2146 124.97 20.7999 125.363 19.6226C125.608 19.2747 125.763 18.915 125.824 18.552L125.832 18.4544C125.832 18.1086 125.694 17.7765 125.431 17.493C125.223 17.2695 124.985 17.1119 124.724 17.0235C124.608 16.9527 124.449 16.8956 124.242 16.8956L124.134 16.895C121.572 16.895 118.805 17.7981 115.906 19.5771L115.908 19.5746L115.902 19.5794C115.85 19.6116 115.798 19.6419 115.746 19.6745C114.205 20.6494 112.875 21.7262 111.793 22.8749L111.794 22.8759C111.737 22.9334 111.587 23.0883 111.387 23.3106C111.125 23.5225 110.832 23.7477 110.509 23.9833C109.867 24.4519 109.175 24.9217 108.451 25.3802C107.726 25.8393 107.005 26.2584 106.308 26.6257C105.648 26.9728 105.103 27.1928 104.692 27.2787C104.474 27.3227 104.247 27.3506 104.014 27.3613L103.983 27.3622C103.864 27.3622 103.809 27.3277 103.772 27.2966C103.763 27.2887 103.728 27.2181 103.735 27.0378C103.74 26.8954 103.8 26.5494 104.144 25.8333C104.433 25.2324 104.636 24.8 104.731 24.5819C104.857 24.295 104.898 24.1829 104.918 24.1213C104.939 24.0607 104.965 23.9949 104.994 23.9256C105.007 23.8967 105.068 23.7612 105.335 23.2286C105.538 22.8218 105.868 22.1924 106.316 21.358C106.777 20.4991 107.43 19.2726 108.283 17.6663C108.586 17.0621 108.656 16.5563 108.497 16.1187C108.293 15.5592 107.921 15.3319 107.645 15.2397C107.283 15.1185 106.891 15.1449 106.508 15.3171C106.093 15.5041 105.817 15.8647 105.728 16.335C105.713 16.3813 105.653 16.5422 105.43 17.0274C105.231 17.464 104.982 17.9868 104.691 18.581C104.632 18.7006 104.532 18.9098 104.407 19.1732L104.257 19.2033C102.692 19.5165 101.126 19.9194 99.6011 20.4007C97.786 20.9738 95.8915 21.7939 93.9647 22.8404C93.7892 22.6765 93.522 22.3774 93.1401 21.8338C92.7169 21.1409 92.4707 20.5795 92.4089 20.1693C92.2719 19.2098 93.3213 17.9349 95.4513 16.4774C97.2417 15.2121 98.8281 14.4022 100.167 14.0703C100.266 14.0514 100.373 14.0363 100.485 14.0257C100.603 14.0147 100.73 14.0093 100.861 14.0093C101.096 14.0093 101.399 14.0435 101.76 14.111C102.125 14.1797 102.587 14.3102 103.132 14.4993L103.161 14.5085C103.513 14.6104 103.924 14.5004 104.484 14.1394C104.923 13.8563 105.243 13.5711 105.464 13.2683C105.618 13.0885 105.791 12.7365 105.543 12.1755L105.509 12.0993L105.456 12.0358C105.156 11.6763 104.822 11.6007 104.605 11.6007H104.604C103.152 11.574 101.588 11.8295 99.9523 12.3569C98.3385 12.8777 96.596 13.6938 94.7807 14.7779C94.7637 14.7874 94.7321 14.8034 94.6883 14.826C92.7169 15.8445 89.4098 17.9912 89.4094 20.9246L89.4152 21.0072C89.4719 21.4068 89.5798 21.7956 89.7353 22.1609C89.8922 22.5328 90.1265 22.9176 90.4217 23.2915L91.254 24.41C87.6681 26.919 86.8723 27.6725 86.5909 28.0206L86.5394 28.0953C86.2935 28.5187 86.3588 28.8303 86.4568 29.0173C86.5473 29.1896 86.7397 29.3994 87.1455 29.4542C87.2526 29.4857 87.3686 29.5017 87.4915 29.5017C87.6221 29.5017 87.7593 29.4845 87.9118 29.4486C88.0783 29.4092 88.3004 29.3687 88.5733 29.3276C88.8216 29.3936 89.0991 29.427 89.4002 29.427C90.3627 29.427 91.5523 29.1051 93.0272 28.4471C94.9525 27.6308 95.8494 26.7943 95.8494 25.8148C95.8494 25.551 95.7637 25.2426 95.5864 24.87C95.4968 24.683 95.3772 24.4775 95.2251 24.2492C96.9842 23.2655 98.6936 22.4386 100.315 21.7879C101.451 21.3323 102.591 20.9512 103.716 20.643C103.301 21.534 102.885 22.4392 102.735 22.7931C102.43 23.519 102.172 24.2145 101.97 24.8606C101.75 25.5583 101.644 26.1228 101.644 26.5865C101.644 27.1646 101.804 27.6675 102.118 28.0806C102.398 28.45 102.731 28.7512 103.105 28.9758C103.271 29.0754 103.885 29.4002 104.829 29.4002C105.795 29.4002 107.265 29.0499 109.02 27.5077C109.016 27.5641 109.014 27.62 109.014 27.6754C109.014 28.9033 109.718 29.6076 110.946 29.6076C111.289 29.6076 111.597 29.5574 111.862 29.4581L111.896 29.444C112.638 29.1113 113.551 28.6163 114.611 27.973C115.666 27.3327 116.92 26.5029 118.343 25.5041C119.454 24.7143 120.404 24.0277 121.169 23.4637C121.296 23.3705 121.418 23.2794 121.535 23.19C121.502 23.3101 121.466 23.4334 121.429 23.5598C120.723 26.0884 120.096 28.0112 119.563 29.2838C112.203 30.7019 105.062 32.7769 98.3362 35.4527C88.0579 39.5085 82.1026 43.7395 80.1282 48.3895C79.7011 49.4036 79.4844 50.4228 79.4844 51.418C79.4844 54.5302 81.0801 57.3609 84.2249 59.8307C87.0731 62.0853 90.2328 63.2285 93.616 63.2285C93.9006 63.2285 94.1906 63.2204 94.4834 63.2042C99.8541 62.8591 104.877 59.8924 109.412 54.3864C113.84 49.0113 117.934 41.0499 121.583 30.7191C122.918 30.4382 124.432 30.2336 126.09 30.1099C127.49 30.0049 129.07 29.9401 130.786 29.9171L130.871 29.916C130.661 30.6745 130.526 31.3827 130.472 32.029C130.334 33.7854 130.675 35.1165 131.501 35.9999C132.173 36.6724 133.011 37.0134 133.993 37.0134C134.138 37.0134 134.288 37.0057 134.443 36.9904C137.353 36.6784 140.084 35.2784 142.562 32.8267C143.45 31.9377 144.2 31.0719 144.789 30.2529C145.396 29.4071 145.826 28.5843 146.063 27.8188C146.235 27.3059 146.318 26.8908 146.318 26.55C146.318 25.4829 145.686 25.1029 145.095 25.1029Z" fill="white"/>
<path d="M66.0662 26.2474C66.0588 26.2474 66.0521 26.2472 66.0465 26.2468C66.0355 26.2127 66.0197 26.1421 66.0197 26.0143C66.0197 25.8061 66.0606 25.6234 66.1441 25.4566L66.1632 25.4144C66.7773 23.9028 68.0275 22.1972 69.8738 20.351C70.8196 19.4296 71.6837 18.6815 72.4421 18.1275C73.158 17.6049 73.8079 17.2736 74.3739 17.1431C74.6523 17.0787 74.9343 17.0461 75.212 17.0461C75.968 17.0461 75.968 17.2494 75.968 17.3162C75.968 17.3641 75.9452 17.5491 75.6616 17.9036C74.1688 19.6415 72.6314 21.2038 71.0921 22.5474C69.552 23.8924 67.954 25.1064 66.3512 26.1502C66.247 26.2156 66.1536 26.2474 66.0662 26.2474ZM76.2135 27.8944L76.1095 27.8639C75.9711 27.8365 75.8468 27.8161 75.7326 27.8012L75.7247 27.8002C75.7046 25.5431 75.7602 22.6682 80.7556 14.3912C83.2626 10.2377 85.3977 7.27765 86.9567 5.1163C88.6534 2.7642 89.4467 1.66475 89.3954 0.869784C89.4002 0.549515 89.2777 0.350669 89.1714 0.238793C89.0253 0.0851969 88.8213 0.000512518 88.5967 0.000512518C87.7125 0.000512518 86.2984 1.49745 85.5636 2.5033C84.7209 3.65693 84.4041 4.13827 84.0374 4.69557C83.8923 4.916 83.7368 5.15241 83.5349 5.45193L83.523 5.46999C83.523 5.46999 82.435 7.21745 81.9748 7.95098C81.5468 8.63323 79.3095 12.2681 78.8473 13.0639C78.4712 13.7119 78.086 14.3769 77.6926 15.0596C77.4249 14.9896 77.1741 14.933 76.9427 14.8898C76.1872 14.7507 75.5888 14.7528 74.9817 14.8962C74.7014 14.9635 74.4401 15.0374 74.205 15.1156L74.1724 15.1274C72.2462 15.8979 69.9105 17.5704 67.229 20.1C64.1415 23.0306 62.6406 25.3561 62.6406 27.209C62.6406 28.3896 63.3586 29.0667 64.6102 29.0667C64.7737 29.0667 64.9564 29.0325 65.1685 28.9623L65.2053 28.9488C66.8786 28.2688 68.9383 26.8041 71.4902 24.4812C72.5974 23.525 73.5926 22.5746 74.4484 21.6557C74.8517 21.2227 75.2345 20.7999 75.5948 20.39C74.4657 23.5327 73.9148 25.722 73.9148 27.0598C73.9148 27.4643 73.9667 27.8466 74.0686 28.1945C74.1715 28.5486 74.2971 28.8415 74.4526 29.0895L74.5171 29.1744C74.8148 29.4993 75.145 29.6641 75.4983 29.6641C75.6687 29.6641 75.836 29.6246 75.9973 29.5468C76.2094 29.4704 76.3985 29.3089 76.5606 29.0657L76.5963 29.004C76.7441 28.7101 76.7088 28.4743 76.6534 28.328C76.5784 28.1314 76.4223 27.9772 76.2135 27.8944Z" fill="white"/>
<path d="M88.5034 14.5681C88.4916 14.7075 88.426 14.9568 88.1894 15.3365C87.9308 15.7242 87.5705 16.0887 87.1182 16.4199C86.6406 16.769 86.1034 17.0818 85.521 17.3496C84.9429 17.6157 84.3184 17.8218 83.665 17.9619C83.535 17.9897 83.4059 18.0148 83.2774 18.0373C83.7885 17.5223 84.3163 17.0175 84.8562 16.5277C85.7649 15.7022 86.6713 15.0307 87.537 14.5394C87.8258 14.3854 88.0813 14.2995 88.2749 14.291L88.3096 14.2901C88.3397 14.2901 88.4397 14.2926 88.4696 14.325C88.4999 14.358 88.5128 14.4516 88.5034 14.5681ZM81.0341 29.502C81.1975 29.502 81.3589 29.4862 81.4961 29.4586C81.982 29.3774 82.4916 29.235 83.0101 29.0351C83.5107 28.8427 83.9996 28.6277 84.462 28.3963C84.9296 28.1623 85.3618 27.9201 85.7456 27.6767C86.1196 27.44 86.4509 27.2171 86.7313 27.0139C86.8546 26.9361 87.1557 26.7304 87.1865 26.3595C87.2047 26.1382 87.1153 25.9228 86.9378 25.7654C86.6464 25.5112 86.2327 25.4954 85.8056 25.7573C85.1636 26.1127 84.3844 26.4622 83.4892 26.7966C82.607 27.126 81.7687 27.3533 80.997 27.4718C80.7365 27.4907 80.4783 27.4745 80.2259 27.4236C80.0063 27.38 79.819 27.2956 79.6547 27.1656C79.5019 27.045 79.3751 26.8582 79.2777 26.6092C79.1717 26.3397 79.1285 25.9692 79.1499 25.5053C79.1721 24.9694 79.2738 24.4437 79.4525 23.9422C79.642 23.4094 79.8693 22.8886 80.1287 22.3938C80.3888 21.8967 80.6725 21.4195 80.9723 20.9759C81.2247 20.6023 81.4544 20.2719 81.6697 19.973C82.8287 19.8976 85.4475 19.4377 87.8164 18.2826C88.8905 17.7593 89.6544 17.0887 90.0869 16.289C90.3694 15.8122 90.4884 15.2835 90.441 14.7179C90.3964 14.1843 90.2447 13.6926 89.9888 13.2552C89.7187 12.7963 89.3416 12.4435 88.8671 12.2058C88.3586 11.9519 87.7747 11.9204 87.1574 12.1153L87.1161 12.13C86.1956 12.4985 85.1604 13.1363 84.039 14.0259C82.9298 14.9053 81.8581 15.9639 80.8537 17.1719C79.8471 18.382 78.9807 19.7075 78.2785 21.1113C77.5614 22.5449 77.1577 24.0043 77.0784 25.4514C77.0477 26.0616 77.1867 26.6409 77.491 27.1727C77.7714 27.6642 78.1278 28.0986 78.5498 28.4637C78.9765 28.8338 79.4535 29.1155 79.9668 29.3004C80.3355 29.4341 80.6947 29.502 81.0341 29.502Z" fill="white"/>
<path d="M98.1103 33.9434C99.0024 33.6573 99.4269 33.6343 100.263 33.4743C100.334 33.4626 100.373 33.4606 100.373 33.4338C100.373 32.8321 99.8501 32.4358 99.2444 32.4358H3.26061C2.65515 32.4358 2.16406 32.9238 2.16406 33.5255C2.16406 34.1275 2.65515 34.6152 3.26061 34.6152H96.3438C96.7452 34.4349 97.6481 34.0916 98.1103 33.9434Z" fill="#E2001A"/>
</svg>
