<svg width="385" height="534" viewBox="0 0 385 534" fill="none" xmlns="http://www.w3.org/2000/svg">
<g clip-path="url(#clip0_61_717)">
<path d="M310.305 41.7106V239.435H263.593L263.562 0H372.844V41.7106H310.305Z" fill="#FAEC70"/>
<path d="M247.396 0H161.994V41.7106H247.396V0Z" fill="#FAEC70"/>
<path d="M77.5794 70.6179L33.0275 196.058H122.471L77.5794 70.6179ZM-28 239.435L59.0675 0H95.721L183.128 239.435H-28Z" fill="#FAEC70"/>
<path d="M159.741 433.796C159.741 466.313 152.12 490.624 136.879 506.759C118.953 524.93 96.4302 534 69.3103 534C43.7639 534 22.2284 525.238 4.76555 507.777C-5.5394 497.473 -12.0494 485.471 -14.7336 471.804C-17.4179 458.353 -18.7754 438.516 -18.7754 412.293C-18.7754 386.07 -17.4179 366.232 -14.7336 352.781C-12.0494 339.114 -5.5394 327.113 4.76555 316.809C22.2284 299.317 43.7639 290.586 69.3103 290.586C94.8567 290.586 116.145 298.113 132.498 313.107C147.06 326.774 156.038 344.822 159.401 367.25H112.35C106.519 343.927 92.1725 332.296 69.3103 332.296C56.7531 332.296 46.7875 336.554 39.3828 345.069C34.6622 350.899 31.6386 357.502 30.3119 364.906C28.7384 373.883 27.9671 389.679 27.9671 412.324C27.9671 434.968 28.7384 451.227 30.3119 459.742C31.6695 467.609 34.6931 474.303 39.3828 479.918C46.3247 488.217 56.2903 492.351 69.3103 492.351C83.1942 492.351 94.3013 487.878 102.601 478.9C109.759 470.601 113.369 459.958 113.369 446.969V437.899H69.3411V398.904H159.772V433.858L159.741 433.796Z" fill="#FAEC70"/>
<path d="M279.481 363.147L234.929 488.587H324.373L279.481 363.147ZM173.871 531.964L260.939 292.529H297.592L384.999 531.964H173.871Z" fill="#FAEC70"/>
</g>
<defs>
<clipPath id="clip0_61_717">
<rect width="413" height="534" fill="white" transform="translate(-28)"/>
</clipPath>
</defs>
</svg>
