<svg width="409" height="534" viewBox="0 0 409 534" fill="none" xmlns="http://www.w3.org/2000/svg">
<g opacity="0.05" clip-path="url(#clip0_1201_2324)">
<path d="M338.305 41.7106V239.435H291.593L291.562 0H400.844V41.7106H338.305Z" fill="#0E445F"/>
<path d="M275.396 0H189.994V41.7106H275.396V0Z" fill="#0E445F"/>
<path d="M105.579 70.6179L61.0275 196.058H150.471L105.579 70.6179ZM0 239.435L87.0675 0H123.721L211.128 239.435H0Z" fill="#0E445F"/>
<path d="M187.741 433.796C187.741 466.313 180.12 490.624 164.879 506.759C146.953 524.93 124.43 534 97.3103 534C71.7639 534 50.2284 525.239 32.7655 507.777C22.4606 497.473 15.9506 485.472 13.2664 471.805C10.5821 458.354 9.22461 438.516 9.22461 412.293C9.22461 386.07 10.5821 366.233 13.2664 352.782C15.9506 339.115 22.4606 327.114 32.7655 316.809C50.2284 299.317 71.7639 290.586 97.3103 290.586C122.857 290.586 144.145 298.114 160.498 313.107C175.06 326.774 184.038 344.822 187.401 367.251H140.35C134.519 343.927 120.172 332.296 97.3103 332.296C84.7531 332.296 74.7875 336.554 67.3828 345.069C62.6622 350.9 59.6386 357.502 58.3119 364.906C56.7384 373.884 55.9671 389.679 55.9671 412.324C55.9671 434.969 56.7384 451.227 58.3119 459.742C59.6695 467.609 62.6931 474.304 67.3828 479.919C74.3247 488.217 84.2903 492.351 97.3103 492.351C111.194 492.351 122.301 487.878 130.601 478.9C137.759 470.602 141.369 459.958 141.369 446.97V437.899H97.3411V398.904H187.772V433.858L187.741 433.796Z" fill="#0E445F"/>
<path d="M307.481 363.147L262.929 488.587H352.373L307.481 363.147ZM201.871 531.964L288.939 292.529H325.592L412.999 531.964H201.871Z" fill="#0E445F"/>
</g>
<defs>
<clipPath id="clip0_1201_2324">
<rect width="413" height="534" fill="white"/>
</clipPath>
</defs>
</svg>
