<svg width="377" height="440" viewBox="0 0 377 440" fill="none" xmlns="http://www.w3.org/2000/svg">
<g opacity="0.05" clip-path="url(#clip0_1201_1990)">
<path d="M302.305 34.3682V197.287H255.593L255.562 0H364.844V34.3682H302.305Z" fill="#F4F4F4"/>
<path d="M239.396 0H153.994V34.3682H239.396V0Z" fill="#F4F4F4"/>
<path d="M69.5794 58.1871L25.0275 161.546H114.471L69.5794 58.1871ZM-36 197.287L51.0675 0H87.721L175.128 197.287H-36Z" fill="#F4F4F4"/>
<path d="M151.741 357.435C151.741 384.228 144.12 404.259 128.879 417.554C110.953 432.526 88.4302 440 61.3103 440C35.7639 440 14.2284 432.78 -3.23445 418.393C-13.5394 409.902 -20.0494 400.014 -22.7336 388.752C-25.4179 377.669 -26.7754 361.324 -26.7754 339.717C-26.7754 318.109 -25.4179 301.764 -22.7336 290.681C-20.0494 279.42 -13.5394 269.531 -3.23445 261.041C14.2284 246.628 35.7639 239.434 61.3103 239.434C86.8567 239.434 108.145 245.636 124.498 257.99C139.06 269.252 148.038 284.122 151.401 302.603H104.35C98.5192 283.385 84.1725 273.802 61.3103 273.802C48.7531 273.802 38.7875 277.31 31.3828 284.326C26.6622 289.13 23.6386 294.57 22.3119 300.671C20.7384 308.068 19.9671 321.084 19.9671 339.742C19.9671 358.401 20.7384 371.797 22.3119 378.813C23.6695 385.295 26.6931 390.811 31.3828 395.438C38.3247 402.276 48.2903 405.682 61.3103 405.682C75.1942 405.682 86.3013 401.996 94.6008 394.599C101.759 387.761 105.369 378.991 105.369 368.289V360.816H61.3411V328.684H151.772V357.485L151.741 357.435Z" fill="#F4F4F4"/>
<path d="M271.481 299.222L226.929 402.581H316.373L271.481 299.222ZM165.871 438.322L252.939 241.035H289.592L376.999 438.322H165.871Z" fill="#F4F4F4"/>
</g>
<defs>
<clipPath id="clip0_1201_1990">
<rect width="413" height="440" fill="white" transform="translate(-36)"/>
</clipPath>
</defs>
</svg>
